<svg width="18" height="18" viewBox="0 0 18 18" fill="none" xmlns="http://www.w3.org/2000/svg">
<path d="M17.9827 7.87163L15.9083 1.48809C15.8483 1.30349 15.65 1.20245 15.4653 1.26239L0.242993 6.20904C0.0583545 6.26905 -0.0426836 6.4674 0.0172924 6.65207L0.999197 9.67369C0.998916 9.67959 0.998318 9.6854 0.998318 9.69137V16.4035C0.998318 16.5976 1.15575 16.7551 1.34988 16.7551H17.3558C17.5499 16.7551 17.7073 16.5976 17.7073 16.4035V9.69137C17.7073 9.49724 17.5499 9.33981 17.3558 9.33981H14.6024L17.757 8.31467C17.9416 8.25466 18.0427 8.05631 17.9827 7.87163ZM17.0042 10.0429V16.052H1.7014V10.0429H3.64876V13.9596C3.64876 14.1537 3.80619 14.3111 4.00032 14.3111C4.19445 14.3111 4.35188 14.1537 4.35188 13.9596V10.0429H12.3829H17.0042ZM12.3272 9.33981H1.63L0.794625 6.76911L2.64773 6.16692L3.35654 8.32114C3.40523 8.46907 3.54273 8.5629 3.69042 8.5629C3.72684 8.5629 3.76389 8.55721 3.80038 8.54518C3.98481 8.48447 4.08515 8.2858 4.02443 8.10134L3.31643 5.94959L15.3483 2.03973L17.2054 7.7546L12.3272 9.33981Z" fill="black"/>
<path d="M14.8149 3.58085C14.7548 3.39625 14.5565 3.29525 14.3718 3.35515L5.2057 6.33381C5.02106 6.39382 4.92002 6.59217 4.98 6.77684C5.0283 6.92541 5.16608 7.01984 5.3143 7.01984C5.3503 7.01984 5.38693 7.01425 5.42303 7.00254L14.5892 4.02389C14.7738 3.96388 14.8749 3.76553 14.8149 3.58085Z" fill="black"/>
<path d="M13.269 5.86407L15.004 5.30027C15.1887 5.24026 15.2897 5.04191 15.2297 4.85724C15.1697 4.6726 14.9714 4.5716 14.7867 4.63154L13.0517 5.19533C12.8671 5.25534 12.766 5.45369 12.826 5.63837C12.8743 5.78694 13.0121 5.88136 13.1603 5.88136C13.1963 5.88136 13.233 5.87577 13.269 5.86407Z" fill="black"/>
<path d="M14.7354 7.47908C14.7837 7.62764 14.9214 7.72207 15.0697 7.72207C15.1056 7.72207 15.1423 7.71648 15.1784 7.70478L15.7274 7.52636C15.9121 7.46635 16.0131 7.268 15.9531 7.08333C15.8931 6.89869 15.6948 6.79765 15.5101 6.85762L14.9611 7.03604C14.7764 7.09605 14.6753 7.2944 14.7354 7.47908Z" fill="black"/>
<path d="M13.7349 7.43476L13.1858 7.61318C13.0012 7.67319 12.9001 7.87154 12.9601 8.05621C13.0084 8.20478 13.1462 8.29921 13.2944 8.29921C13.3304 8.29921 13.367 8.29362 13.4032 8.28191L13.9522 8.10349C14.1369 8.04348 14.2379 7.84513 14.1779 7.66046C14.1179 7.47582 13.9198 7.37482 13.7349 7.43476Z" fill="black"/>
<path d="M8.82877 6.56757L5.62062 7.61009C5.43598 7.6701 5.3349 7.86845 5.39491 8.05312C5.44322 8.20169 5.581 8.29612 5.72921 8.29612C5.76518 8.29612 5.80184 8.29053 5.83795 8.27882L9.0461 7.23631C9.23074 7.1763 9.33178 6.97795 9.2718 6.79327C9.21172 6.60863 9.01341 6.50763 8.82877 6.56757Z" fill="black"/>
<path d="M4.00032 14.7783C3.80619 14.7783 3.64876 14.9357 3.64876 15.1299V15.2675C3.64876 15.4617 3.80619 15.6191 4.00032 15.6191C4.19445 15.6191 4.35188 15.4617 4.35188 15.2675V15.1299C4.35188 14.9357 4.19445 14.7783 4.00032 14.7783Z" fill="black"/>
<path d="M5.67957 11.3437C5.67957 11.5379 5.83699 11.6953 6.03112 11.6953H15.669C15.8632 11.6953 16.0206 11.5379 16.0206 11.3437C16.0206 11.1496 15.8632 10.9922 15.669 10.9922H6.03112C5.83699 10.9922 5.67957 11.1496 5.67957 11.3437Z" fill="black"/>
<path d="M15.6691 12.3345H13.8447C13.6506 12.3345 13.4932 12.4919 13.4932 12.686C13.4932 12.8802 13.6506 13.0376 13.8447 13.0376H15.6691C15.8632 13.0376 16.0206 12.8802 16.0206 12.686C16.0206 12.4919 15.8632 12.3345 15.6691 12.3345Z" fill="black"/>
<path d="M15.6691 14.6753H15.0918C14.8976 14.6753 14.7402 14.8327 14.7402 15.0269C14.7402 15.221 14.8976 15.3784 15.0918 15.3784H15.6691C15.8632 15.3784 16.0207 15.221 16.0207 15.0269C16.0207 14.8327 15.8632 14.6753 15.6691 14.6753Z" fill="black"/>
<path d="M13.8025 14.6753H13.2252C13.0311 14.6753 12.8736 14.8327 12.8736 15.0269C12.8736 15.221 13.0311 15.3784 13.2252 15.3784H13.8025C13.9966 15.3784 14.154 15.221 14.154 15.0269C14.154 14.8327 13.9966 14.6753 13.8025 14.6753Z" fill="black"/>
<path d="M9.40445 12.3345H6.03117C5.83704 12.3345 5.67961 12.4919 5.67961 12.686C5.67961 12.8802 5.83704 13.0376 6.03117 13.0376H9.40445C9.59858 13.0376 9.75601 12.8802 9.75601 12.686C9.75601 12.4919 9.59858 12.3345 9.40445 12.3345Z" fill="black"/>
</svg>
